<?xml version="1.0" encoding="utf-8"?>
<!-- Generator: Adobe Illustrator 15.1.0, SVG Export Plug-In . SVG Version: 6.00 Build 0)  -->
<!DOCTYPE svg PUBLIC "-//W3C//DTD SVG 1.1//EN" "http://www.w3.org/Graphics/SVG/1.1/DTD/svg11.dtd">
<svg version="1.1" id="Layer_1" xmlns="http://www.w3.org/2000/svg" xmlns:xlink="http://www.w3.org/1999/xlink" x="0px" y="0px"
	 width="792px" height="612px" viewBox="0 0 792 612" enable-background="new 0 0 792 612" xml:space="preserve">
<path fill="#5A8AD3" d="M182.044-626.913c-47.819,0-86.724,38.904-86.724,86.725c0,47.819,38.904,86.723,86.724,86.723
	s86.724-38.903,86.724-86.723C268.768-588.009,229.864-626.913,182.044-626.913z"/>
<path fill="#5A8AD3" d="M408.1-626.913c-47.82,0-86.724,38.904-86.724,86.725c0,47.819,38.904,86.723,86.724,86.723
	c47.819,0,86.724-38.903,86.724-86.723C494.823-588.009,455.919-626.913,408.1-626.913z"/>
<path fill="#5A8AD3" d="M630.246-626.913c-47.819,0-86.724,38.904-86.724,86.725c0,47.819,38.904,86.723,86.724,86.723
	s86.724-38.903,86.724-86.723C716.97-588.009,678.065-626.913,630.246-626.913z"/>
<path fill="#5A8AD3" d="M167.214-423.038c-47.819,0-86.724,38.904-86.724,86.724c0,47.819,38.904,86.723,86.724,86.723
	s86.724-38.904,86.724-86.723C253.938-384.134,215.034-423.038,167.214-423.038z"/>
<path fill="#5A8AD3" d="M393.27-423.069c-47.819,0-86.724,38.904-86.724,86.724c0,47.819,38.904,86.723,86.724,86.723
	s86.724-38.904,86.724-86.723C479.993-384.165,441.089-423.069,393.27-423.069z"/>
<path fill="#5A8AD3" d="M615.029-423.07c-47.819,0-86.724,38.904-86.724,86.724c0,47.819,38.904,86.723,86.724,86.723
	s86.724-38.904,86.724-86.723C701.753-384.166,662.849-423.07,615.029-423.07z"/>
<path fill="#5A8AD3" d="M175.455-213.005c-47.819,0-86.724,38.904-86.724,86.724c0,47.819,38.904,86.723,86.724,86.723
	s86.724-38.904,86.724-86.723C262.178-174.101,223.274-213.005,175.455-213.005z"/>
<path fill="#5A8AD3" d="M401.51-212.155c-47.819,0-86.724,38.904-86.724,86.724s38.904,86.724,86.724,86.724
	s86.724-38.904,86.724-86.724S449.329-212.155,401.51-212.155z"/>
<path fill="#5A8AD3" d="M623.066-212.156c-47.818,0-86.723,38.904-86.723,86.724c0,47.819,38.904,86.723,86.723,86.723
	c47.82,0,86.725-38.904,86.725-86.723C709.791-173.251,670.887-212.156,623.066-212.156z"/>
<path fill="#5A8AD3" d="M175.131,597.191c-47.818,0-86.722-38.906-86.722-86.729c0-47.818,38.903-86.723,86.722-86.723
	c47.82,0,86.726,38.904,86.726,86.723C261.856,558.285,222.951,597.191,175.131,597.191z M175.131,429.41
	c-44.692,0-81.052,36.359-81.052,81.053c0,44.695,36.359,81.059,81.052,81.059c44.694,0,81.056-36.363,81.056-81.059
	C256.187,465.77,219.825,429.41,175.131,429.41z"/>
<g>
	<path fill="#5A8AD3" d="M196.863,486.43c-8.715,0-15.773,6.975-15.773,15.578c0,8.615,7.059,15.592,15.773,15.592
		c8.709,0,15.77-6.977,15.77-15.592C212.633,493.404,205.572,486.43,196.863,486.43z M201.211,496.367
		c1.197,0,2.17,0.969,2.17,2.174c0,1.195-0.973,2.162-2.17,2.162c-1.194,0-2.169-0.967-2.169-2.162
		C199.042,497.336,200.017,496.367,201.211,496.367z M191.393,496.373c1.197,0,2.171,0.969,2.171,2.174
		c0,1.193-0.974,2.162-2.171,2.162s-2.17-0.969-2.17-2.162C189.223,497.342,190.195,496.373,191.393,496.373z M196.86,511.877
		c-4.144,0-7.661-2.467-8.97-5.908c0,0,6.729,1.301,8.97,1.301c2.243,0,8.972-1.301,8.972-1.301
		C204.523,509.41,201.006,511.877,196.86,511.877z"/>
	<g>
		<path fill="#5A8AD3" d="M198.047,531.365c-1.667,0-2.502-0.914-2.502-2.742c0-0.914,0.227-1.607,0.682-2.086
			c0.453-0.484,1.102-0.727,1.948-0.727c0.621,0,1.175,0.123,1.667,0.367l-0.429,1.131c-0.231-0.092-0.445-0.172-0.645-0.23
			c-0.195-0.057-0.395-0.09-0.594-0.09c-0.759,0-1.139,0.545-1.139,1.621c0,1.049,0.38,1.574,1.139,1.574
			c0.281,0,0.544-0.037,0.782-0.113c0.237-0.076,0.479-0.195,0.718-0.355v1.254c-0.237,0.146-0.476,0.254-0.718,0.309
			C198.719,531.338,198.415,531.365,198.047,531.365z"/>
	</g>
	<path fill="#5A8AD3" d="M206.489,516.033c-2.665,2.035-5.997,3.258-9.625,3.258c-3.602,0-6.91-1.205-9.564-3.211
		c-2.154,1.051-4.254,2.357-6.168,3.785c7.462,6.527,11.796,14.5,6.791,17.719c-0.209,0.135-0.446,0.266-0.676,0.398
		c3.094,0.521,6.369,0.838,9.614,0.838c8.679,0,18.306-2.027,22.64-4.629C225.047,530.863,216.402,520.781,206.489,516.033z
		 M197.692,533.891c-2.926,0-5.299-2.373-5.299-5.303c0-2.926,2.373-5.301,5.299-5.301c2.928,0,5.302,2.375,5.302,5.301
		C202.994,531.518,200.62,533.891,197.692,533.891z"/>
	<path fill="#5A8AD3" d="M157.121,477.383c-10.779,0-19.512,8.633-19.512,19.281c0,10.654,8.732,19.287,19.512,19.287
		c10.777,0,19.51-8.633,19.51-19.287C176.631,486.016,167.898,477.383,157.121,477.383z M162.814,489.92
		c1.48,0,2.682,1.199,2.682,2.691c0,1.477-1.201,2.674-2.682,2.674s-2.684-1.197-2.684-2.674
		C160.131,491.119,161.334,489.92,162.814,489.92z M150.59,489.926c1.484,0,2.687,1.199,2.687,2.688c0,1.48-1.202,2.678-2.687,2.678
		c-1.479,0-2.68-1.197-2.68-2.678C147.91,491.125,149.111,489.926,150.59,489.926z M157.119,508.869
		c-5.127,0-9.477-3.057-11.098-7.312c0,0,8.324,1.609,11.098,1.609c2.776,0,11.1-1.609,11.1-1.609
		C166.6,505.812,162.25,508.869,157.119,508.869z"/>
	<path fill="#5A8AD3" d="M169.03,514.01c-3.297,2.518-7.419,4.031-11.909,4.031c-4.454,0-8.546-1.49-11.829-3.971
		c-12.457,6.074-23.487,19.018-16.185,22.408c6.279,2.918,17.277,5.723,28.012,5.723c10.736,0,22.648-2.508,28.01-5.723
		C191.995,532.357,181.296,519.885,169.03,514.01z M157.024,537.568c-4.266,0-7.728-3.457-7.728-7.725
		c0-4.264,3.462-7.725,7.728-7.725c4.267,0,7.726,3.461,7.726,7.725C164.75,534.111,161.291,537.568,157.024,537.568z"/>
	<g>
		<path fill="#5A8AD3" d="M157.539,533.891c-2.431,0-3.646-1.334-3.646-4c0-1.326,0.332-2.34,0.991-3.043
			c0.661-0.699,1.609-1.049,2.844-1.049c0.903,0,1.71,0.176,2.43,0.529l-0.629,1.652c-0.337-0.141-0.649-0.25-0.936-0.338
			c-0.29-0.084-0.578-0.127-0.865-0.127c-1.108,0-1.661,0.787-1.661,2.357c0,1.529,0.553,2.295,1.661,2.295
			c0.407,0,0.79-0.055,1.14-0.164c0.344-0.115,0.696-0.281,1.046-0.514v1.82c-0.345,0.217-0.694,0.369-1.046,0.455
			C158.518,533.85,158.072,533.891,157.539,533.891z"/>
	</g>
</g>
<path fill="#5A8AD3" d="M407.776,183.461c-47.819,0-86.723-38.904-86.723-86.724c0-47.824,38.903-86.731,86.723-86.731
	c47.82,0,86.725,38.907,86.725,86.731C494.501,144.557,455.597,183.461,407.776,183.461z M407.776,15.675
	c-44.692,0-81.053,36.364-81.053,81.062c0,44.694,36.36,81.055,81.053,81.055c44.694,0,81.055-36.361,81.055-81.055
	C488.831,52.039,452.471,15.675,407.776,15.675z"/>
<g>
	<g>
		<path fill="#5A8AD3" d="M390.683,100.039c0.462-9.057,7.93-16.259,17.093-16.259c9.171,0,16.636,7.202,17.098,16.259h19.967
			V82.375c0-4.199-3.409-7.605-7.607-7.605h-58.911c-4.201,0-7.605,3.406-7.605,7.605v17.663H390.683z"/>
		<path fill="#5A8AD3" d="M424.582,104.292c-1.566,7.851-8.492,13.766-16.807,13.766c-8.308,0-15.235-5.915-16.802-13.766h-20.258
			v16.201c0,4.205,3.404,7.608,7.605,7.608h58.911c4.198,0,7.607-3.403,7.607-7.608v-16.201H424.582z"/>
	</g>
	<path fill="#5A8AD3" d="M407.777,92.199c1.044,0,2.813,5.704,2.813,5.704s6.293,0.178,6.293,0.918c0,1.254-4.552,4.431-4.552,4.431
		s1.786,5.559,1.074,6.268c-0.843,0.847-5.629-2.957-5.629-2.957s-4.854,3.725-5.627,2.957c-0.758-0.756,1.079-6.268,1.079-6.268
		s-4.557-3.177-4.557-4.431c0-0.945,6.29-0.918,6.29-0.918S406.591,92.199,407.777,92.199z"/>
	<path fill="#5A8AD3" d="M395.197,77.276v-6.641c0-3.084,2.511-5.593,5.594-5.593h13.969c3.086,0,5.594,2.509,5.594,5.593v6.641
		h4.025v-6.641c0-5.303-4.314-9.615-9.619-9.615h-13.969c-5.3,0-9.615,4.312-9.615,9.615v6.641H395.197z"/>
</g>
<path fill="#5A8AD3" d="M623.699,597.191c-47.817,0-86.72-38.904-86.72-86.725s38.902-86.727,86.72-86.727
	c47.82,0,86.725,38.906,86.725,86.727S671.52,597.191,623.699,597.191z M623.699,429.41c-44.691,0-81.05,36.361-81.05,81.057
	c0,44.693,36.358,81.055,81.05,81.055c44.694,0,81.055-36.361,81.055-81.055C704.754,465.771,668.394,429.41,623.699,429.41z"/>
<g>
	<g>
		<g>
			<path fill="#5A8AD3" d="M585.701,533.723c-0.4,0.301-0.756,0.438-1.068,0.43c0.23,3.566,1.062,5.424,2.756,4.09
				c13.602-10.701,35.35,3.889,35.35,3.889l-0.044-4.418C621.783,537.135,599.616,523.287,585.701,533.723z"/>
		</g>
		<path fill="#5A8AD3" d="M621.858,490.434c-11.877-11.918-32.082-8.293-33.837-4.777c-4.589,9.195-10.248,49.639-3.575,44.389
			c14.68-11.553,38.114,4.086,38.284,4.201L621.858,490.434z M619.282,496.848l-2.232,2.855c-0.122-0.092-12.387-9.479-22.582-3.867
			l-1.749-3.18C605.021,485.883,618.705,496.391,619.282,496.848z M614.836,517.549c-0.124-0.096-12.382-9.475-22.582-3.859
			l-1.75-3.176c12.301-6.777,25.985,3.727,26.563,4.178L614.836,517.549z M615.791,508.807c-0.124-0.096-12.394-9.48-22.585-3.865
			l-1.749-3.182c12.308-6.773,25.989,3.736,26.566,4.182L615.791,508.807z"/>
	</g>
	<g>
		<g>
			<path fill="#5A8AD3" d="M660.739,534.049c0.4,0.301,0.756,0.438,1.068,0.43c-0.23,3.566-1.062,5.424-2.756,4.09
				c-13.602-10.701-35.35,3.889-35.35,3.889l0.044-4.418C624.657,537.461,646.824,523.613,660.739,534.049z"/>
		</g>
		<path fill="#5A8AD3" d="M623.71,534.572c0.17-0.115,23.604-15.754,38.284-4.201c6.673,5.25,1.014-35.193-3.575-44.389
			c-1.755-3.516-21.96-7.141-33.837,4.777L623.71,534.572z M653.722,492.982l-1.749,3.18c-10.195-5.611-22.46,3.775-22.582,3.867
			l-2.232-2.855C627.735,496.717,641.42,486.209,653.722,492.982z M629.373,515.018c0.578-0.451,14.263-10.955,26.563-4.178
			l-1.75,3.176c-10.2-5.615-22.458,3.764-22.582,3.859L629.373,515.018z M628.417,506.268c0.577-0.445,14.259-10.955,26.566-4.182
			l-1.749,3.182c-10.191-5.615-22.461,3.77-22.585,3.865L628.417,506.268z"/>
	</g>
</g>
<path fill="#5A8AD3" d="M615.462,387.332c-47.819,0-86.724-38.904-86.724-86.724c0-47.819,38.904-86.723,86.724-86.723
	c47.818,0,86.722,38.904,86.722,86.723C702.184,348.428,663.28,387.332,615.462,387.332z M615.462,219.554
	c-44.693,0-81.054,36.361-81.054,81.054c0,44.693,36.36,81.054,81.054,81.054c44.692,0,81.052-36.361,81.052-81.054
	C696.514,255.915,660.154,219.554,615.462,219.554z"/>
<g>
	<path fill="#5A8AD3" d="M601.366,270.024c-2.297-1.636-5.152-2.617-8.259-2.617c-7.552,0-13.68,5.732-13.68,12.814
		c0,2.461,0.754,4.751,2.039,6.703C585.521,279.277,592.635,273.216,601.366,270.024z"/>
	<path fill="#5A8AD3" d="M615.46,271.01c-18.844,0-34.118,15.28-34.118,34.12c0,18.844,15.274,34.122,34.118,34.122
		s34.12-15.277,34.12-34.122C649.58,286.291,634.304,271.01,615.46,271.01z M615.46,329.379c-13.389,0-24.242-10.852-24.242-24.249
		c0-13.387,10.854-24.246,24.242-24.246c13.395,0,24.247,10.859,24.247,24.246C639.707,318.527,628.854,329.379,615.46,329.379z"/>
	
		<rect x="615.019" y="309.203" transform="matrix(0.8394 0.5435 -0.5435 0.8394 268.6287 -288.0499)" fill="#5A8AD3" width="13.538" height="2.758"/>
	<path fill="#5A8AD3" d="M618.914,306.093c0,1.907-1.544,3.453-3.454,3.453c-1.901,0-3.449-1.546-3.449-3.453
		c0-1.914,1.548-3.45,3.449-3.45C617.37,302.643,618.914,304.179,618.914,306.093z"/>
	<rect x="613.954" y="290.203" fill="#5A8AD3" width="2.758" height="16.684"/>
	<polygon fill="#5A8AD3" points="610.514,293.194 615.33,288.346 620.16,293.194 	"/>
	<polygon fill="#5A8AD3" points="628.277,308.103 631.676,317.42 621.786,318.131 	"/>
	<path fill="#5A8AD3" d="M649.457,286.927c1.285-1.954,2.039-4.247,2.039-6.711c0-7.077-6.119-12.81-13.677-12.81
		c-3.109,0-5.966,0.981-8.263,2.616C638.289,273.216,645.402,279.278,649.457,286.927z"/>
</g>
<path fill="#5A8AD3" d="M166.893,387.334c-47.819,0-86.724-38.904-86.724-86.721c0-47.824,38.904-86.731,86.724-86.731
	s86.724,38.907,86.724,86.731C253.616,348.43,214.712,387.334,166.893,387.334z M166.893,219.551
	c-44.693,0-81.054,36.364-81.054,81.062c0,44.692,36.36,81.051,81.054,81.051s81.054-36.359,81.054-81.051
	C247.946,255.915,211.586,219.551,166.893,219.551z"/>
<g>
	<path fill="#5A8AD3" d="M213.227,304.182c0-11.62-11.016-21.038-24.607-21.038c-1.736,0-3.43,0.155-5.064,0.448
		c1.799,3.632,2.809,7.662,2.809,11.911c0,0.412-0.015,0.82-0.034,1.228c0.833-0.473,1.747-0.741,2.723-0.741
		c1.354,0,2.461,0.441,3.316,1.333c0.233,0.226,0.455,0.514,0.646,0.802c1.493-1.535,2.827-2.135,4.617-2.135
		c1.275,0,2.481,0.38,3.224,1.019c0.919,0.797,1.211,1.753,1.211,3.979v11.593h-4.144v-10.763c0-1.95-0.228-2.329-1.337-2.329
		c-0.797,0-1.918,0.541-2.836,1.368v11.724h-4.041v-10.606c0-2.038-0.293-2.514-1.479-2.514c-0.654,0-1.516,0.298-2.315,0.871
		c-0.132,0.719-0.291,1.43-0.48,2.13v10.119h-4.17v-1.346c-2.404,3.378-5.558,6.263-9.248,8.46
		c3.895,3.041,8.935,5.027,14.506,5.432c5.344,7.104,17.719,6.014,17.719,6.014c-4.932-1.314-6.531-4.555-6.965-7.287
		C206.59,320.857,213.227,313.192,213.227,304.182z"/>
	<path fill="#5A8AD3" d="M140.781,314.45c0,0,3.027,11.743-8.74,14.87c0,0,23.195,2.09,25.552-14.87
		C159.947,297.491,140.781,314.45,140.781,314.45z"/>
	<path fill="#5A8AD3" d="M152.006,267.993c-17.367,0-31.447,12.035-31.447,26.885c0,14.845,14.08,26.878,31.447,26.878
		s31.443-12.033,31.443-26.878C183.449,280.028,169.373,267.993,152.006,267.993z M167.401,304.818h-28.968
		c-1.076,0-1.957-0.875-1.957-1.952c0-1.085,0.881-1.963,1.957-1.963h28.968c1.081,0,1.96,0.878,1.96,1.963
		C169.361,303.943,168.482,304.818,167.401,304.818z M167.401,296.589h-28.968c-1.076,0-1.957-0.879-1.957-1.961
		c0-1.08,0.881-1.955,1.957-1.955h28.968c1.081,0,1.96,0.875,1.96,1.955C169.361,295.71,168.482,296.589,167.401,296.589z
		 M167.401,288.347h-28.968c-1.076,0-1.957-0.875-1.957-1.957s0.881-1.957,1.957-1.957h28.968c1.081,0,1.96,0.875,1.96,1.957
		S168.482,288.347,167.401,288.347z"/>
</g>
<path fill="#5A8AD3" d="M392.948,387.332c-47.82,0-86.725-38.904-86.725-86.724c0-47.819,38.904-86.723,86.725-86.723
	c47.819,0,86.724,38.904,86.724,86.723C479.672,348.428,440.768,387.332,392.948,387.332z M392.948,219.554
	c-44.694,0-81.055,36.361-81.055,81.054c0,44.693,36.36,81.054,81.055,81.054c44.693,0,81.054-36.361,81.054-81.054
	C474.002,255.915,437.642,219.554,392.948,219.554z"/>
<g>
	<path fill="#5A8AD3" d="M377.062,279.47c0,2.139-1.733,3.876-3.877,3.876l0,0c-2.143,0-3.88-1.737-3.88-3.876v-9.119
		c0-2.153,1.737-3.889,3.88-3.889l0,0c2.144,0,3.877,1.735,3.877,3.889V279.47z"/>
	<path fill="#5A8AD3" d="M396.271,279.47c0,2.139-1.735,3.876-3.884,3.876l0,0c-2.138,0-3.879-1.737-3.879-3.876v-9.119
		c0-2.153,1.741-3.889,3.879-3.889l0,0c2.148,0,3.884,1.735,3.884,3.889V279.47z"/>
	<path fill="#5A8AD3" d="M420.547,276.725h-2.433v3.648c0,3.603-2.92,6.513-6.517,6.513c-3.601,0-6.515-2.91-6.515-6.513v-3.648
		h-6.178v3.648c0,3.603-2.916,6.513-6.514,6.513s-6.515-2.91-6.515-6.513v-3.648H379.7v3.648c0,3.603-2.921,6.513-6.515,6.513
		c-3.599,0-6.516-2.91-6.516-6.513v-3.648h-1.325c-4.631,0-8.38,3.748-8.38,8.392v41.393c0,4.625,3.749,8.383,8.38,8.383h55.202
		c4.627,0,8.384-3.758,8.384-8.383v-41.393C428.931,280.473,425.174,276.725,420.547,276.725z M366.298,304.283h9.275
		c-0.994,1.658-1.576,3.593-1.576,5.668c0,1.564,0.329,3.051,0.916,4.399h-8.615V304.283z M376.715,327.092h-10.42v-10.057h10.276
		c0.046,0.055,0.097,0.105,0.144,0.158V327.092z M376.715,301.478h-10.417v-10.062h10.417V301.478z M380.545,291.416h10.414v9.204
		c-1.71-1.085-3.734-1.722-5.911-1.722c-1.605,0-3.126,0.35-4.503,0.966V291.416z M390.959,327.092h-10.414v-7.057
		c1.376,0.617,2.897,0.967,4.503,0.967c2.177,0,4.201-0.637,5.911-1.723V327.092z M388.252,310.956c0,0,1.257,3.906,0.759,4.405
		c-0.596,0.592-3.963-2.079-3.963-2.079s-3.412,2.615-3.955,2.079c-0.532-0.532,0.762-4.405,0.762-4.405s-3.204-2.235-3.204-3.118
		c0-0.661,4.421-0.645,4.421-0.645s1.146-4.009,1.977-4.009c0.732,0,1.979,4.009,1.979,4.009s4.424,0.128,4.424,0.645
		C391.45,308.721,388.252,310.956,388.252,310.956z M404.626,327.092h-10.419v-10.057h10.419V327.092z M404.626,314.351h-9.438
		c0.586-1.349,0.915-2.835,0.915-4.399c0-2.075-0.582-4.01-1.575-5.668h10.098V314.351z M404.626,301.478h-10.422v-10.062h10.422
		V301.478z M418.114,327.092h-10.422v-10.057h10.422V327.092z M418.114,314.351h-10.422v-10.068h10.422V314.351z M418.114,301.478
		h-10.422v-10.062h10.422V301.478z"/>
	<path fill="#5A8AD3" d="M415.478,279.47c0,2.139-1.734,3.876-3.88,3.876l0,0c-2.142,0-3.876-1.737-3.876-3.876v-9.119
		c0-2.153,1.734-3.889,3.876-3.889l0,0c2.146,0,3.88,1.735,3.88,3.889V279.47z"/>
</g>
<path fill="#5A8AD3" d="M630.292,183.461c-47.819,0-86.724-38.905-86.724-86.727c0-47.822,38.904-86.728,86.724-86.728
	c47.818,0,86.722,38.906,86.722,86.728C717.014,144.556,678.11,183.461,630.292,183.461z M630.292,15.675
	c-44.693,0-81.054,36.363-81.054,81.059c0,44.695,36.36,81.058,81.054,81.058c44.692,0,81.052-36.363,81.052-81.058
	C711.344,52.038,674.984,15.675,630.292,15.675z"/>
<g>
	<polygon fill="#5A8AD3" points="661.689,83.209 636.747,87.871 645.147,71.344 670.091,66.682 	"/>
	<polygon fill="#5A8AD3" points="597.366,83.209 633.242,87.871 621.16,71.344 585.281,66.682 	"/>
	<path fill="#5A8AD3" d="M597.549,86.02v41.794l12.303-16.636c0,0-3.552-11.792,10.098-12.005c0,0-7.3,8.002-0.413,10.909
		c0,0,5.331,2.912,7.591-5.709c0,0,3.537,13.214-8.519,11.96l-10.651,13.476l25.469,3.312V90.688L597.549,86.02z"/>
	<path fill="#5A8AD3" d="M648.87,115.345c-0.989,0.153-1.92-0.519-2.074-1.506c-0.157-0.995,0.521-1.926,1.511-2.083l13.383-2.106
		v-3.935l-13.182,2.076c-0.992,0.156-1.923-0.521-2.08-1.515c-0.157-0.993,0.522-1.922,1.512-2.074l13.75-2.165V86.02l-24.942,4.668
		v42.434l23.557-4.406l1.386-0.26v-1.625v-13.504L648.87,115.345z"/>
</g>
<g>
	<path fill="#5A8AD3" d="M181.723,183.457c-47.819,0-86.724-38.904-86.724-86.723c0-47.82,38.904-86.724,86.724-86.724
		s86.724,38.904,86.724,86.724C268.446,144.553,229.542,183.457,181.723,183.457z M181.723,15.679
		c-44.693,0-81.054,36.361-81.054,81.055c0,44.693,36.36,81.054,81.054,81.054s81.054-36.361,81.054-81.054
		C262.776,52.04,226.416,15.679,181.723,15.679z"/>
</g>
<g>
	<path fill="#5A8AD3" d="M171.912,62.256c0.658,1.303,1.598,2.361,2.076,2.361c0.484,0,2.443-1.863,4.361-4.145
		c3.994-4.736,5.592-5.85,8.408-5.85c1.102,0,2.211-0.367,2.449-0.818c0.738-1.371-0.336-1.873-1.781-0.832
		c-2.078,1.496-3.393-0.178-3.129-3.984c0.299-4.289-1.285-4.713-1.867-0.486l-0.443,3.191l-2.504-3.139
		c-1.373-1.734-2.674-3.146-2.904-3.146c-0.861,0-0.35,2.145,0.928,3.842c2.359,3.123,1.516,4.102-1.346,1.533
		c-2.109-1.912-2.664-1.914-2.664-0.018c0,0.98,0.596,1.695,1.672,2.014c2.135,0.609,2.1,1.215-0.186,2.775
		c-1.018,0.689-2.402,1.947-3.062,2.805c-1.172,1.49-1.172,1.623,0,3.896H171.912z"/>
	<path fill="#5A8AD3" d="M214.031,66.807c-1.922-2.402-4.014-5.424-4.639-6.734c-0.887-1.844-1.592-2.369-3.168-2.369
		c-1.121,0-3.137-0.689-4.479-1.516c-4.801-2.961-7.502-2.838-13.725,0.602c-3.074,1.697-5.996,3.66-6.496,4.34
		c-0.498,0.695-0.85,2.686-0.795,4.445c0.129,3.76-1.016,3.068-1.338-0.824l-0.221-2.541l-3.746,2.881
		c-4.721,3.65-6.516,6.664-8.094,13.611c-0.691,3.033-1.533,6.715-1.865,8.199c-0.957,4.229-0.771,5.363,1.023,6.156
		c1.318,0.565,1.668,1.253,1.654,3.239c-0.027,2.928-2.641,10.727-3.734,11.129c-0.408,0.16,0.006-1.471,0.928-3.604
		c0.924-2.138,1.711-5.178,1.75-6.754c0.062-2.404-0.166-2.907-1.381-3.103c-2.168-0.361-5.387,1.872-6.594,4.551
		c-0.584,1.293-1.207,2.189-1.391,1.981c-0.678-0.78,1.875-5.235,3.461-6.062c1.689-0.887,2.07-2.493,1.012-4.406
		c-0.861-1.565-2.705,0.298-2.705,2.729c0,1.01-0.303,1.827-0.672,1.827c-0.365,0-0.668-0.44-0.668-0.969
		c0-0.537-0.77-2.29-1.715-3.894c-1.398-2.367-1.895-2.737-2.67-2.004c-1.459,1.396-1.141,2.755,1.049,4.564
		c1.123,0.92,2.004,2.341,2.004,3.23c0,1.48-0.277,1.555-3.742,1.15c-2.059-0.243-4.232-0.937-4.836-1.529
		c-2.312-2.271-2.941-2.392-2.412-0.461c0.615,2.295,1.48,2.961,3.855,2.97c5.455,0.04,8.445,6.327,5.016,10.527
		c-0.797,0.989-1.117,1.78-0.705,1.78c0.961,0,3.85-4.344,4.801-7.212c0.396-1.22,0.883-2.047,1.064-1.835
		c0.551,0.637-0.986,4.585-3.361,8.666c-1.236,2.113-2.453,5.049-2.705,6.524l-0.475,2.693l1.918-1.903
		c1.059-1.051,3.029-3.092,4.408-4.557c1.365-1.465,2.645-2.481,2.836-2.256c0.383,0.443-4.201,5.518-9.332,10.336
		c-10.426,9.764-19.523,14.435-30.512,18.23c-0.729,0.251-9.119,1.719-10.193,2.028c-0.256,0.074-0.5,0.16-0.754,0.237l4.238,7.109
		c13.195,0.333,37.668-13.789,38.85-14.685c2.361-1.804,3.336-2.059,7.322-1.946c4.123,0.123,5.047-0.136,8.887-2.577
		c5.232-3.313,6.09-3.427,4.832-0.649c-0.592,1.326-0.783,3.227-0.539,5.311c0.33,2.734,0.152,3.458-1.135,4.662
		c-0.832,0.768-2.445,2.355-3.582,3.499l-2.066,2.096l2.037,0.016c2.303,0.028,3.541-0.932,5.193-4.005
		c1.406-2.603,2.902-2.711,3.863-0.267c0.59,1.469,0.512,2.229-0.338,3.634c-1.229,2.014-1.439,5.698-0.373,6.453
		c1.105,0.784,1.479-0.072,2.027-4.707c0.275-2.366,0.68-4.505,0.896-4.75c0.217-0.254,1.604,0.99,3.074,2.752
		c1.482,1.778,3.27,3.224,3.994,3.224c0.723,0,1.311-0.197,1.311-0.441c0-1.045-1.662-3.98-3.551-6.283
		c-2.32-2.833-2.27-2.894,1.295-1.452c2.812,1.111,4.254,0.921,4.254-0.604c0-1.269-2.889-2.737-5.369-2.737
		c-2.254,0-2.293-0.122-1.055-2.929c0.512-1.146,1.148-2.936,1.414-3.999c0.461-1.802,0.334-1.753-1.967,0.78l-2.465,2.677
		l0.469-3.079c0.266-1.684,0.744-3.646,1.057-4.371c1.084-2.418,0.646-5.143-1.045-6.411c-1.525-1.164-1.873-1.075-7.051,1.9
		c-2.984,1.722-5.6,3.111-5.811,3.111c-0.914,0,3.074-2.874,5.811-4.188c4.459-2.156,6.938-5.245,9.043-11.272
		c1.771-5.065,1.836-5.63,1.088-9.797c-1.229-6.855-1.045-9.08,0.871-10.527c1.988-1.504,3.998-1.062,7.428,1.618
		c3.25,2.538,4.535,2.405,7.775-0.782c1.5-1.482,3.068-2.699,3.477-2.699c0.412,0,1.768,0.869,3.016,1.928
		c3.418,2.905,6.273,2.338,3.621-0.715c-0.574-0.662-1.809-1.213-2.744-1.213c-1.266,0-1.592-0.293-1.289-1.203
		c0.344-1.023-0.201-1.178-3.59-1.02c-6.572,0.311-5.211-0.584,1.617-1.053c7.152-0.498,9.654-1.553,10.941-4.656
		C218.684,73.631,218.049,71.784,214.031,66.807z M189.207,81.436c-0.41-0.443,0.221-0.502,1.666-0.148
		c1.27,0.309,3.436,0.549,4.809,0.549c1.377-0.006,2.502,0.258,2.502,0.604C198.184,83.62,190.379,82.76,189.207,81.436z
		 M203.768,76.083c-1.721,1.564-4.254,2.105-5.135,1.076c-0.967-1.094-0.371-4.066,1.041-5.203c0.812-0.65,2.471-1.193,3.666-1.193
		c1.875,0,2.188,0.27,2.188,1.871C205.527,73.727,204.812,75.155,203.768,76.083z"/>
</g>
<path fill="#5A8AD3" d="M401.188,597.189c-47.819,0-86.724-38.904-86.724-86.725c0-47.818,38.904-86.723,86.724-86.723
	c47.82,0,86.725,38.904,86.725,86.723C487.912,558.285,449.008,597.189,401.188,597.189z M401.188,429.412
	c-44.693,0-81.054,36.359-81.054,81.053s36.36,81.055,81.054,81.055c44.694,0,81.055-36.361,81.055-81.055
	S445.882,429.412,401.188,429.412z"/>
<g>
	<rect x="398.732" y="528.314" fill="#5A8AD3" width="4.913" height="11.682"/>
	<g>
		<path fill="#5A8AD3" d="M430.547,478.342h-58.715c-3.535,0-6.402,2.863-6.402,6.396v37.832c0,3.535,2.867,6.396,6.402,6.396
			h58.715c3.532,0,6.399-2.861,6.399-6.396v-37.832C436.946,481.205,434.079,478.342,430.547,478.342z M428.395,518.055
			c0,2.684-2.183,4.863-4.868,4.863h-44.674c-2.688,0-4.871-2.18-4.871-4.863v-28.787c0-2.691,2.183-4.867,4.871-4.867h44.674
			c2.686,0,4.868,2.176,4.868,4.867V518.055z"/>
		<g>
			<path fill="#5A8AD3" d="M415.486,496.492c0,0.941-0.761,1.699-1.702,1.699h-25.191c-0.939,0-1.703-0.758-1.703-1.699l0,0
				c0-0.941,0.764-1.697,1.703-1.697h25.191C414.726,494.795,415.486,495.551,415.486,496.492L415.486,496.492z"/>
			<path fill="#5A8AD3" d="M415.486,503.656c0,0.941-0.761,1.703-1.702,1.703h-25.191c-0.939,0-1.703-0.762-1.703-1.703l0,0
				c0-0.939,0.764-1.701,1.703-1.701h25.191C414.726,501.955,415.486,502.717,415.486,503.656L415.486,503.656z"/>
			<path fill="#5A8AD3" d="M415.486,510.82c0,0.939-0.761,1.695-1.702,1.695h-25.191c-0.939,0-1.703-0.756-1.703-1.695l0,0
				c0-0.941,0.764-1.703,1.703-1.703h25.191C414.726,509.117,415.486,509.879,415.486,510.82L415.486,510.82z"/>
		</g>
	</g>
	<path fill="#5A8AD3" d="M423.216,539.998c0,1.434-1.163,2.59-2.595,2.59h-38.374c-1.431,0-2.592-1.156-2.592-2.59l0,0
		c0-1.436,1.161-2.592,2.592-2.592h38.374C422.053,537.406,423.216,538.562,423.216,539.998L423.216,539.998z"/>
</g>
<g>
	<path fill="#FFFFFF" d="M197.185-150.316c-8.715,0-15.773,6.975-15.773,15.578c0,8.615,7.059,15.592,15.773,15.592
		c8.709,0,15.77-6.977,15.77-15.592C212.955-143.342,205.894-150.316,197.185-150.316z M201.533-140.379
		c1.197,0,2.17,0.969,2.17,2.174c0,1.195-0.973,2.162-2.17,2.162c-1.194,0-2.169-0.967-2.169-2.162
		C199.364-139.41,200.338-140.379,201.533-140.379z M191.714-140.373c1.197,0,2.171,0.969,2.171,2.174
		c0,1.193-0.974,2.162-2.171,2.162s-2.17-0.969-2.17-2.162C189.544-139.404,190.517-140.373,191.714-140.373z M197.182-124.869
		c-4.144,0-7.661-2.467-8.97-5.908c0,0,6.729,1.301,8.97,1.301c2.243,0,8.972-1.301,8.972-1.301
		C204.845-127.336,201.328-124.869,197.182-124.869z"/>
	<g>
		<path fill="#FFFFFF" d="M198.369-105.381c-1.667,0-2.502-0.914-2.502-2.742c0-0.914,0.227-1.607,0.682-2.086
			c0.453-0.484,1.102-0.727,1.948-0.727c0.621,0,1.175,0.123,1.667,0.367l-0.429,1.131c-0.231-0.092-0.445-0.172-0.645-0.23
			c-0.195-0.057-0.395-0.09-0.594-0.09c-0.759,0-1.139,0.545-1.139,1.621c0,1.049,0.38,1.574,1.139,1.574
			c0.281,0,0.544-0.037,0.782-0.113c0.237-0.076,0.479-0.195,0.718-0.355v1.254c-0.237,0.146-0.476,0.254-0.718,0.309
			C199.041-105.408,198.737-105.381,198.369-105.381z"/>
	</g>
	<path fill="#FFFFFF" d="M206.811-120.714c-2.665,2.035-5.997,3.259-9.625,3.259c-3.602,0-6.91-1.205-9.564-3.211
		c-2.154,1.051-4.254,2.356-6.168,3.785c7.462,6.526,11.796,14.499,6.791,17.719c-0.209,0.135-0.446,0.266-0.676,0.398
		c3.094,0.521,6.369,0.838,9.614,0.838c8.679,0,18.306-2.027,22.64-4.629C225.369-105.884,216.724-115.966,206.811-120.714z
		 M198.014-102.855c-2.926,0-5.299-2.373-5.299-5.303c0-2.926,2.373-5.301,5.299-5.301c2.928,0,5.302,2.375,5.302,5.301
		C203.316-105.229,200.942-102.855,198.014-102.855z"/>
	<path fill="#FFFFFF" d="M157.443-159.363c-10.779,0-19.512,8.633-19.512,19.281c0,10.654,8.732,19.287,19.512,19.287
		c10.777,0,19.51-8.633,19.51-19.287C176.953-150.73,168.22-159.363,157.443-159.363z M163.136-146.826
		c1.48,0,2.682,1.199,2.682,2.691c0,1.477-1.201,2.674-2.682,2.674s-2.684-1.197-2.684-2.674
		C160.453-145.627,161.656-146.826,163.136-146.826z M150.912-146.82c1.484,0,2.687,1.199,2.687,2.688
		c0,1.48-1.202,2.678-2.687,2.678c-1.479,0-2.68-1.197-2.68-2.678C148.232-145.621,149.433-146.82,150.912-146.82z M157.441-127.877
		c-5.127,0-9.477-3.057-11.098-7.312c0,0,8.324,1.609,11.098,1.609c2.776,0,11.1-1.609,11.1-1.609
		C166.921-130.934,162.572-127.877,157.441-127.877z"/>
	<path fill="#FFFFFF" d="M169.352-122.736c-3.297,2.518-7.419,4.031-11.909,4.031c-4.454,0-8.546-1.49-11.829-3.972
		c-12.457,6.074-23.487,19.019-16.185,22.409c6.279,2.918,17.277,5.723,28.012,5.723c10.736,0,22.648-2.508,28.01-5.723
		C192.317-104.389,181.618-116.862,169.352-122.736z M157.346-99.178c-4.266,0-7.728-3.457-7.728-7.725
		c0-4.264,3.462-7.725,7.728-7.725c4.267,0,7.726,3.461,7.726,7.725C165.072-102.635,161.613-99.178,157.346-99.178z"/>
	<g>
		<path fill="#FFFFFF" d="M157.861-102.855c-2.431,0-3.646-1.334-3.646-4c0-1.326,0.332-2.34,0.991-3.043
			c0.661-0.699,1.609-1.049,2.844-1.049c0.903,0,1.71,0.176,2.43,0.529l-0.629,1.652c-0.337-0.141-0.649-0.25-0.936-0.338
			c-0.29-0.084-0.578-0.127-0.865-0.127c-1.108,0-1.661,0.787-1.661,2.357c0,1.529,0.553,2.295,1.661,2.295
			c0.407,0,0.79-0.055,1.14-0.164c0.344-0.115,0.696-0.281,1.046-0.514v1.82c-0.345,0.217-0.694,0.369-1.046,0.455
			C158.839-102.896,158.394-102.855,157.861-102.855z"/>
	</g>
</g>
<g>
	<g>
		<path fill="#FFFFFF" d="M391.004-536.884c0.463-9.058,7.93-16.259,17.094-16.259c9.17,0,16.635,7.201,17.098,16.259h19.967
			v-17.663c0-4.199-3.41-7.605-7.607-7.605h-58.912c-4.201,0-7.605,3.406-7.605,7.605v17.663H391.004z"/>
		<path fill="#FFFFFF" d="M424.904-532.63c-1.566,7.851-8.492,13.766-16.807,13.766c-8.309,0-15.235-5.915-16.803-13.766h-20.257
			v16.201c0,4.205,3.404,7.608,7.605,7.608h58.912c4.197,0,7.607-3.403,7.607-7.608v-16.201H424.904z"/>
	</g>
	<path fill="#FFFFFF" d="M408.1-544.724c1.043,0,2.812,5.704,2.812,5.704s6.293,0.178,6.293,0.918c0,1.254-4.551,4.431-4.551,4.431
		s1.785,5.559,1.074,6.268c-0.844,0.847-5.629-2.957-5.629-2.957s-4.855,3.725-5.627,2.957c-0.758-0.756,1.078-6.268,1.078-6.268
		s-4.557-3.177-4.557-4.431c0-0.945,6.291-0.918,6.291-0.918S406.912-544.724,408.1-544.724z"/>
	<path fill="#FFFFFF" d="M395.519-559.646v-6.641c0-3.084,2.511-5.593,5.594-5.593h13.97c3.086,0,5.594,2.509,5.594,5.593v6.641
		h4.025v-6.641c0-5.303-4.314-9.615-9.619-9.615h-13.97c-5.3,0-9.614,4.312-9.614,9.615v6.641H395.519z"/>
</g>
<g>
	<g>
		<g>
			<path fill="#FFFFFF" d="M585.066-102.174c-0.4,0.301-0.756,0.438-1.068,0.429c0.23,3.566,1.062,5.424,2.756,4.091
				c13.602-10.701,35.35,3.889,35.35,3.889l-0.045-4.418C621.148-98.762,598.98-112.609,585.066-102.174z"/>
		</g>
		<path fill="#FFFFFF" d="M621.223-145.464c-11.877-11.918-32.082-8.293-33.836-4.776c-4.59,9.195-10.248,49.639-3.576,44.389
			c14.68-11.554,38.115,4.086,38.285,4.2L621.223-145.464z M618.646-139.049l-2.232,2.855c-0.121-0.092-12.387-9.479-22.582-3.867
			l-1.748-3.18C604.385-150.014,618.07-139.506,618.646-139.049z M614.201-118.348c-0.125-0.096-12.383-9.475-22.582-3.859
			l-1.75-3.176c12.301-6.777,25.984,3.727,26.562,4.178L614.201-118.348z M615.156-127.09c-0.125-0.096-12.395-9.48-22.586-3.865
			l-1.748-3.182c12.307-6.773,25.988,3.736,26.566,4.182L615.156-127.09z"/>
	</g>
	<g>
		<g>
			<path fill="#FFFFFF" d="M660.104-101.848c0.4,0.301,0.756,0.438,1.068,0.429c-0.23,3.566-1.062,5.424-2.756,4.091
				c-13.602-10.701-35.35,3.889-35.35,3.889l0.045-4.418C624.021-98.436,646.189-112.283,660.104-101.848z"/>
		</g>
		<path fill="#FFFFFF" d="M623.074-101.325c0.17-0.114,23.605-15.754,38.285-4.2c6.672,5.25,1.014-35.193-3.576-44.389
			c-1.754-3.517-21.959-7.142-33.836,4.776L623.074-101.325z M653.086-142.914l-1.748,3.18c-10.195-5.611-22.461,3.775-22.582,3.867
			l-2.232-2.855C627.1-139.18,640.785-149.688,653.086-142.914z M628.738-120.879c0.578-0.451,14.262-10.955,26.562-4.178
			l-1.75,3.176c-10.199-5.615-22.457,3.764-22.582,3.859L628.738-120.879z M627.781-129.629c0.578-0.445,14.26-10.955,26.566-4.182
			l-1.748,3.182c-10.191-5.615-22.461,3.77-22.586,3.865L627.781-129.629z"/>
	</g>
</g>
<g>
	<path fill="#FFFFFF" d="M600.934-366.93c-2.297-1.636-5.152-2.617-8.258-2.617c-7.553,0-13.68,5.732-13.68,12.814
		c0,2.461,0.754,4.751,2.039,6.703C585.09-357.677,592.203-363.737,600.934-366.93z"/>
	<path fill="#FFFFFF" d="M615.027-365.943c-18.844,0-34.117,15.28-34.117,34.12c0,18.844,15.273,34.122,34.117,34.122
		s34.121-15.278,34.121-34.122C649.148-350.663,633.871-365.943,615.027-365.943z M615.027-307.575
		c-13.389,0-24.242-10.851-24.242-24.248c0-13.387,10.854-24.246,24.242-24.246c13.395,0,24.248,10.859,24.248,24.246
		C639.275-318.426,628.422-307.575,615.027-307.575z"/>
	
		<rect x="614.587" y="-327.751" transform="matrix(0.8395 0.5434 -0.5434 0.8395 -77.6043 -390.0619)" fill="#FFFFFF" width="13.539" height="2.758"/>
	<path fill="#FFFFFF" d="M618.482-330.86c0,1.906-1.545,3.452-3.455,3.452c-1.9,0-3.449-1.546-3.449-3.452
		c0-1.914,1.549-3.45,3.449-3.45C616.938-334.311,618.482-332.774,618.482-330.86z"/>
	<rect x="613.521" y="-346.751" fill="#FFFFFF" width="2.758" height="16.684"/>
	<polygon fill="#FFFFFF" points="610.082,-343.76 614.898,-348.607 619.729,-343.76 	"/>
	<polygon fill="#FFFFFF" points="627.846,-328.852 631.244,-319.533 621.354,-318.822 	"/>
	<path fill="#FFFFFF" d="M649.025-350.026c1.285-1.954,2.039-4.247,2.039-6.711c0-7.077-6.119-12.81-13.678-12.81
		c-3.109,0-5.965,0.981-8.262,2.616C637.857-363.737,644.971-357.676,649.025-350.026z"/>
</g>
<g>
	<path fill="#FFFFFF" d="M213.548-332.74c0-11.62-11.016-21.038-24.607-21.038c-1.736,0-3.43,0.155-5.064,0.448
		c1.799,3.632,2.809,7.662,2.809,11.911c0,0.412-0.015,0.82-0.034,1.228c0.833-0.473,1.747-0.741,2.723-0.741
		c1.354,0,2.461,0.441,3.316,1.333c0.233,0.226,0.455,0.514,0.646,0.802c1.493-1.535,2.827-2.135,4.617-2.135
		c1.275,0,2.481,0.38,3.224,1.019c0.919,0.797,1.211,1.753,1.211,3.979v11.593h-4.144v-10.763c0-1.95-0.228-2.329-1.337-2.329
		c-0.797,0-1.918,0.541-2.836,1.368v11.724h-4.041v-10.605c0-2.038-0.293-2.514-1.479-2.514c-0.654,0-1.516,0.298-2.315,0.871
		c-0.132,0.719-0.291,1.43-0.48,2.13v10.118h-4.17v-1.346c-2.404,3.378-5.558,6.264-9.248,8.461
		c3.895,3.04,8.935,5.027,14.506,5.431c5.344,7.104,17.719,6.015,17.719,6.015c-4.932-1.315-6.531-4.556-6.965-7.287
		C206.912-316.065,213.548-323.73,213.548-332.74z"/>
	<path fill="#FFFFFF" d="M141.103-322.473c0,0,3.027,11.743-8.74,14.871c0,0,23.195,2.09,25.552-14.871
		C160.269-339.432,141.103-322.473,141.103-322.473z"/>
	<path fill="#FFFFFF" d="M152.328-368.93c-17.367,0-31.447,12.035-31.447,26.885c0,14.845,14.08,26.878,31.447,26.878
		s31.443-12.033,31.443-26.878C183.771-356.895,169.695-368.93,152.328-368.93z M167.723-332.104h-28.968
		c-1.076,0-1.957-0.875-1.957-1.952c0-1.085,0.881-1.963,1.957-1.963h28.968c1.081,0,1.96,0.878,1.96,1.963
		C169.683-332.979,168.804-332.104,167.723-332.104z M167.723-340.333h-28.968c-1.076,0-1.957-0.879-1.957-1.961
		c0-1.08,0.881-1.955,1.957-1.955h28.968c1.081,0,1.96,0.875,1.96,1.955C169.683-341.212,168.804-340.333,167.723-340.333z
		 M167.723-348.575h-28.968c-1.076,0-1.957-0.875-1.957-1.957s0.881-1.957,1.957-1.957h28.968c1.081,0,1.96,0.875,1.96,1.957
		S168.804-348.575,167.723-348.575z"/>
</g>
<g>
	<path fill="#FFFFFF" d="M377.385-357.484c0,2.139-1.734,3.876-3.877,3.876l0,0c-2.143,0-3.88-1.737-3.88-3.876v-9.119
		c0-2.153,1.737-3.889,3.88-3.889l0,0c2.144,0,3.877,1.735,3.877,3.889V-357.484z"/>
	<path fill="#FFFFFF" d="M396.594-357.484c0,2.139-1.736,3.876-3.885,3.876l0,0c-2.137,0-3.879-1.737-3.879-3.876v-9.119
		c0-2.153,1.742-3.889,3.879-3.889l0,0c2.148,0,3.885,1.735,3.885,3.889V-357.484z"/>
	<path fill="#FFFFFF" d="M420.869-360.229h-2.434v3.648c0,3.603-2.92,6.513-6.516,6.513c-3.602,0-6.516-2.91-6.516-6.513v-3.648
		h-6.178v3.648c0,3.603-2.916,6.513-6.514,6.513s-6.514-2.91-6.514-6.513v-3.648h-6.178v3.648c0,3.603-2.92,6.513-6.514,6.513
		c-3.599,0-6.516-2.91-6.516-6.513v-3.648h-1.325c-4.631,0-8.38,3.748-8.38,8.392v41.393c0,4.625,3.749,8.384,8.38,8.384h55.203
		c4.627,0,8.383-3.759,8.383-8.384v-41.393C429.252-356.481,425.496-360.229,420.869-360.229z M366.62-332.671h9.275
		c-0.994,1.658-1.576,3.593-1.576,5.668c0,1.564,0.329,3.051,0.916,4.399h-8.615V-332.671z M377.037-309.862h-10.42v-10.057h10.276
		c0.046,0.055,0.097,0.104,0.144,0.157V-309.862z M377.037-335.476H366.62v-10.062h10.417V-335.476z M380.867-345.539h10.414v9.204
		c-1.711-1.085-3.734-1.722-5.912-1.722c-1.605,0-3.126,0.35-4.502,0.966V-345.539z M391.281-309.862h-10.414v-7.057
		c1.376,0.616,2.896,0.966,4.502,0.966c2.178,0,4.201-0.637,5.912-1.722V-309.862z M388.574-325.999c0,0,1.256,3.906,0.758,4.405
		c-0.596,0.592-3.963-2.079-3.963-2.079s-3.412,2.615-3.955,2.079c-0.531-0.532,0.762-4.405,0.762-4.405s-3.203-2.235-3.203-3.118
		c0-0.661,4.42-0.645,4.42-0.645s1.146-4.009,1.977-4.009c0.732,0,1.979,4.009,1.979,4.009s4.424,0.128,4.424,0.645
		C391.771-328.234,388.574-325.999,388.574-325.999z M404.947-309.862h-10.418v-10.057h10.418V-309.862z M404.947-322.604h-9.438
		c0.586-1.349,0.916-2.835,0.916-4.399c0-2.075-0.582-4.01-1.576-5.668h10.098V-322.604z M404.947-335.476h-10.422v-10.062h10.422
		V-335.476z M418.436-309.862h-10.422v-10.057h10.422V-309.862z M418.436-322.604h-10.422v-10.067h10.422V-322.604z
		 M418.436-335.476h-10.422v-10.062h10.422V-335.476z"/>
	<path fill="#FFFFFF" d="M415.799-357.484c0,2.139-1.734,3.876-3.879,3.876l0,0c-2.143,0-3.877-1.737-3.877-3.876v-9.119
		c0-2.153,1.734-3.889,3.877-3.889l0,0c2.145,0,3.879,1.735,3.879,3.889V-357.484z"/>
</g>
<g>
	<polygon fill="#FFFFFF" points="661.645,-553.713 636.701,-549.052 645.102,-565.578 670.045,-570.24 	"/>
	<polygon fill="#FFFFFF" points="597.32,-553.713 633.197,-549.052 621.115,-565.578 585.236,-570.24 	"/>
	<path fill="#FFFFFF" d="M597.504-550.902v41.794l12.303-16.636c0,0-3.553-11.792,10.098-12.005c0,0-7.301,8.002-0.414,10.909
		c0,0,5.332,2.912,7.592-5.709c0,0,3.537,13.214-8.52,11.96l-10.65,13.476l25.469,3.312v-42.434L597.504-550.902z"/>
	<path fill="#FFFFFF" d="M648.824-521.577c-0.988,0.153-1.92-0.519-2.074-1.506c-0.156-0.995,0.521-1.926,1.512-2.083l13.383-2.106
		v-3.935l-13.182,2.076c-0.992,0.156-1.924-0.521-2.08-1.515c-0.158-0.993,0.521-1.922,1.512-2.074l13.75-2.165v-16.018
		l-24.943,4.668v42.434l23.557-4.406l1.387-0.26v-1.625v-13.505L648.824-521.577z"/>
</g>
<g>
	<path fill="#FFFFFF" d="M172.234-574.666c0.658,1.303,1.598,2.361,2.076,2.361c0.484,0,2.443-1.863,4.361-4.145
		c3.994-4.736,5.592-5.85,8.408-5.85c1.102,0,2.211-0.367,2.449-0.818c0.738-1.371-0.336-1.873-1.781-0.832
		c-2.078,1.496-3.393-0.178-3.129-3.984c0.299-4.289-1.285-4.713-1.867-0.486l-0.443,3.191l-2.504-3.139
		c-1.373-1.734-2.674-3.146-2.904-3.146c-0.861,0-0.35,2.145,0.928,3.842c2.359,3.123,1.516,4.102-1.346,1.533
		c-2.109-1.912-2.664-1.914-2.664-0.018c0,0.98,0.596,1.695,1.672,2.014c2.135,0.609,2.1,1.215-0.186,2.775
		c-1.018,0.689-2.402,1.947-3.062,2.805c-1.172,1.49-1.172,1.623,0,3.896H172.234z"/>
	<path fill="#FFFFFF" d="M214.353-570.115c-1.922-2.402-4.014-5.424-4.639-6.734c-0.887-1.844-1.592-2.369-3.168-2.369
		c-1.121,0-3.137-0.689-4.479-1.516c-4.801-2.961-7.502-2.838-13.725,0.602c-3.074,1.697-5.996,3.66-6.496,4.34
		c-0.498,0.695-0.85,2.686-0.795,4.445c0.129,3.76-1.016,3.068-1.338-0.824l-0.221-2.541l-3.746,2.881
		c-4.721,3.65-6.516,6.664-8.094,13.611c-0.691,3.033-1.533,6.715-1.865,8.199c-0.957,4.229-0.771,5.363,1.023,6.156
		c1.318,0.565,1.668,1.253,1.654,3.239c-0.027,2.928-2.641,10.727-3.734,11.129c-0.408,0.16,0.006-1.471,0.928-3.604
		c0.924-2.138,1.711-5.178,1.75-6.754c0.062-2.404-0.166-2.907-1.381-3.103c-2.168-0.361-5.387,1.872-6.594,4.551
		c-0.584,1.293-1.207,2.189-1.391,1.981c-0.678-0.78,1.875-5.235,3.461-6.062c1.689-0.887,2.07-2.493,1.012-4.406
		c-0.861-1.565-2.705,0.298-2.705,2.729c0,1.01-0.303,1.827-0.672,1.827c-0.365,0-0.668-0.44-0.668-0.969
		c0-0.537-0.77-2.29-1.715-3.894c-1.398-2.367-1.895-2.737-2.67-2.004c-1.459,1.396-1.141,2.755,1.049,4.564
		c1.123,0.92,2.004,2.341,2.004,3.23c0,1.48-0.277,1.555-3.742,1.15c-2.059-0.243-4.232-0.937-4.836-1.529
		c-2.312-2.271-2.941-2.392-2.412-0.461c0.615,2.295,1.48,2.961,3.855,2.97c5.455,0.04,8.445,6.327,5.016,10.527
		c-0.797,0.989-1.117,1.78-0.705,1.78c0.961,0,3.85-4.344,4.801-7.212c0.396-1.22,0.883-2.047,1.064-1.835
		c0.551,0.637-0.986,4.585-3.361,8.666c-1.236,2.113-2.453,5.049-2.705,6.524l-0.475,2.693l1.918-1.903
		c1.059-1.051,3.029-3.092,4.408-4.557c1.365-1.465,2.645-2.481,2.836-2.256c0.383,0.443-4.201,5.518-9.332,10.336
		c-10.426,9.764-19.523,14.435-30.512,18.23c-0.729,0.251-9.119,1.719-10.193,2.028c-0.256,0.074-0.5,0.16-0.754,0.237l4.238,7.109
		c13.195,0.333,37.668-13.789,38.85-14.685c2.361-1.804,3.336-2.059,7.322-1.946c4.123,0.123,5.047-0.136,8.887-2.577
		c5.232-3.313,6.09-3.427,4.832-0.649c-0.592,1.326-0.783,3.227-0.539,5.311c0.33,2.734,0.152,3.458-1.135,4.662
		c-0.832,0.768-2.445,2.355-3.582,3.499l-2.066,2.096l2.037,0.016c2.303,0.028,3.541-0.932,5.193-4.005
		c1.406-2.603,2.902-2.711,3.863-0.267c0.59,1.469,0.512,2.229-0.338,3.634c-1.229,2.014-1.439,5.698-0.373,6.453
		c1.105,0.784,1.479-0.072,2.027-4.707c0.275-2.366,0.68-4.505,0.896-4.75c0.217-0.254,1.604,0.99,3.074,2.752
		c1.482,1.778,3.27,3.224,3.994,3.224c0.723,0,1.311-0.197,1.311-0.441c0-1.045-1.662-3.98-3.551-6.283
		c-2.32-2.833-2.27-2.894,1.295-1.452c2.812,1.111,4.254,0.921,4.254-0.604c0-1.269-2.889-2.737-5.369-2.737
		c-2.254,0-2.293-0.122-1.055-2.929c0.512-1.146,1.148-2.936,1.414-3.999c0.461-1.802,0.334-1.753-1.967,0.78l-2.465,2.677
		l0.469-3.079c0.266-1.684,0.744-3.646,1.057-4.371c1.084-2.418,0.646-5.143-1.045-6.411c-1.525-1.164-1.873-1.075-7.051,1.9
		c-2.984,1.722-5.6,3.111-5.811,3.111c-0.914,0,3.074-2.874,5.811-4.188c4.459-2.156,6.938-5.245,9.043-11.272
		c1.771-5.065,1.836-5.63,1.088-9.797c-1.229-6.855-1.045-9.08,0.871-10.527c1.988-1.504,3.998-1.062,7.428,1.618
		c3.25,2.538,4.535,2.405,7.775-0.782c1.5-1.482,3.068-2.699,3.477-2.699c0.412,0,1.768,0.869,3.016,1.928
		c3.418,2.905,6.273,2.338,3.621-0.715c-0.574-0.662-1.809-1.213-2.744-1.213c-1.266,0-1.592-0.293-1.289-1.203
		c0.344-1.023-0.201-1.178-3.59-1.02c-6.572,0.311-5.211-0.584,1.617-1.053c7.152-0.498,9.654-1.553,10.941-4.656
		C219.005-563.291,218.371-565.139,214.353-570.115z M189.529-555.486c-0.41-0.443,0.221-0.502,1.666-0.148
		c1.27,0.309,3.436,0.549,4.809,0.549c1.377-0.006,2.502,0.258,2.502,0.604C198.505-553.303,190.701-554.162,189.529-555.486z
		 M204.089-560.84c-1.721,1.564-4.254,2.105-5.135,1.076c-0.967-1.094-0.371-4.066,1.041-5.203c0.812-0.65,2.471-1.193,3.666-1.193
		c1.875,0,2.188,0.27,2.188,1.871C205.849-563.195,205.134-561.768,204.089-560.84z"/>
</g>
<g>
	<rect x="399.055" y="-107.582" fill="#FFFFFF" width="4.912" height="11.682"/>
	<g>
		<path fill="#FFFFFF" d="M430.869-157.555h-58.715c-3.535,0-6.402,2.863-6.402,6.396v37.832c0,3.535,2.867,6.396,6.402,6.396
			h58.715c3.531,0,6.398-2.861,6.398-6.396v-37.832C437.268-154.691,434.4-157.555,430.869-157.555z M428.717-117.842
			c0,2.684-2.184,4.863-4.869,4.863h-44.674c-2.688,0-4.871-2.18-4.871-4.863v-28.787c0-2.691,2.183-4.867,4.871-4.867h44.674
			c2.686,0,4.869,2.176,4.869,4.867V-117.842z"/>
		<g>
			<path fill="#FFFFFF" d="M415.809-139.404c0,0.941-0.762,1.699-1.703,1.699h-25.191c-0.939,0-1.703-0.758-1.703-1.699l0,0
				c0-0.941,0.764-1.697,1.703-1.697h25.191C415.047-141.102,415.809-140.346,415.809-139.404L415.809-139.404z"/>
			<path fill="#FFFFFF" d="M415.809-132.24c0,0.941-0.762,1.703-1.703,1.703h-25.191c-0.939,0-1.703-0.762-1.703-1.703l0,0
				c0-0.939,0.764-1.701,1.703-1.701h25.191C415.047-133.941,415.809-133.18,415.809-132.24L415.809-132.24z"/>
			<path fill="#FFFFFF" d="M415.809-125.076c0,0.939-0.762,1.695-1.703,1.695h-25.191c-0.939,0-1.703-0.756-1.703-1.695l0,0
				c0-0.941,0.764-1.703,1.703-1.703h25.191C415.047-126.779,415.809-126.018,415.809-125.076L415.809-125.076z"/>
		</g>
	</g>
	<path fill="#FFFFFF" d="M423.537-95.898c0,1.434-1.162,2.59-2.594,2.59h-38.375c-1.43,0-2.592-1.156-2.592-2.59l0,0
		c0-1.436,1.162-2.592,2.592-2.592h38.375C422.375-98.49,423.537-97.334,423.537-95.898L423.537-95.898z"/>
</g>
</svg>
